<?xml version="1.0" standalone="no"?>
<!DOCTYPE svg PUBLIC "-//W3C//DTD SVG 20010904//EN"
 "http://www.w3.org/TR/2001/REC-SVG-20010904/DTD/svg10.dtd">
<svg version="1.0" xmlns="http://www.w3.org/2000/svg" width="670.000000pt" height="231.000000pt" viewBox="0 0 670.000000 231.000000" preserveAspectRatio="xMidYMid meet">
    <g transform="translate(0.000000,231.000000) scale(0.100000,-0.100000)" stroke="none" fill="#ffffff">
        <path id="letter_g" d="M362 1605 c-238 -67 -378 -342 -318 -626 31 -144 114 -255 234 -312 61 -29 76 -32 162 -32 84 0 102 3 152 28 31 15 71 44 89 65 l32 36 -5 -82 c-8 -111 -42 -173 -119 -216 -49 -28 -62 -31 -139 -30 -87 0 -174 20 -241 55 l-37 18 -26 -104 c-14 -57 -26 -111 -26 -120 0 -35 200 -85 342 -85 233 0 408 82 482 227 61 122 60 100 69 941 l2 232 -132 0 -133 0 0 -49 c0 -28 -4 -52 -8 -55 -4 -2 -20 10 -35 29 -14 18 -52 46 -83 61 -69 34 -180 42 -262 19z m267 -244 c17 -13 41 -41 52 -63 18 -36 20 -55 17 -188 -3 -165 -9 -180 -79 -228 -29 -20 -44 -23 -95 -20 -76 5 -121 35 -155 105 -21 41 -24 63 -24 153 1 94 3 110 27 155 14 28 34 58 45 67 57 51 154 60 212 19z"/>
        <path id="letter_e" d="M1580 1609 c-25 -5 -77 -25 -117 -44 -290 -143 -356 -609 -117 -835 91 -86 219 -130 379 -130 90 0 232 21 304 45 l48 16 -20 100 -20 101 -36 -6 c-129 -24 -176 -28 -256 -24 -69 4 -102 11 -140 29 -53 27 -100 78 -110 122 l-7 27 315 0 315 0 6 31 c10 53 6 160 -8 230 -28 130 -110 250 -205 298 -90 47 -218 62 -331 40z m166 -208 c49 -22 80 -62 93 -122 6 -24 11 -47 11 -51 0 -5 -81 -8 -180 -8 -205 0 -198 -4 -156 85 27 59 51 82 103 101 52 18 81 17 129 -5z"/>
        <path id="letter_t" d="M2495 1846 l-140 -32 -3 -107 -3 -107 -64 0 -65 0 0 -110 0 -110 64 0 64 0 4 -262 c3 -226 7 -271 23 -322 25 -74 79 -136 147 -167 47 -21 67 -24 168 -23 63 0 127 6 143 12 l27 12 0 112 0 113 -74 0 c-127 0 -136 20 -136 318 l0 207 110 0 110 0 0 110 0 110 -110 0 -110 0 0 140 c0 77 -3 140 -7 139 -5 0 -71 -15 -148 -33z"/>
        <path id="letter_k" d="M3040 1330 l0 -710 155 0 155 0 0 158 0 157 38 43 37 43 114 -197 c62 -107 119 -198 125 -200 7 -2 91 -3 189 -2 l177 3 -195 284 c-107 156 -195 288 -195 293 0 8 211 252 319 371 l25 27 -185 0 -184 -1 -102 -152 c-55 -84 -115 -174 -132 -202 l-31 -50 0 423 0 422 -155 0 -155 0 0 -710z"/>
        <path id="letter_o" d="M4433 1605 c-183 -41 -323 -171 -368 -341 -20 -76 -20 -231 0 -307 55 -210 218 -339 445 -354 248 -15 454 109 531 322 33 89 33 272 1 370 -46 141 -152 249 -287 294 -88 30 -233 37 -322 16z m218 -227 c21 -14 45 -46 64 -83 29 -57 30 -66 30 -186 0 -120 -1 -128 -30 -184 -36 -71 -86 -105 -153 -105 -82 0 -133 36 -174 125 -19 42 -23 67 -23 155 0 151 29 226 104 277 47 32 134 32 182 1z"/>
		<path id="flame"  d="M4389 2270 c-457 -41 -793 -266 -928 -620 -51 -135 -50 -168 3 -84 41 64 176 205 255 264 80 62 225 135 306 155 52 13 205 22 205 11 0 -2 -7 -20 -15 -39 -23 -55 -19 -121 8 -153 18 -20 35 -28 73 -31 73 -7 156 18 308 92 243 119 355 141 483 94 76 -28 82 -35 36 -43 -147 -27 -228 -156 -160 -257 59 -88 176 -136 411 -168 83 -12 188 -33 235 -47 106 -32 286 -116 372 -174 78 -53 199 -148 199 -158 0 -4 -62 -7 -137 -7 -83 0 -155 -5 -180 -13 -72 -22 -162 -91 -230 -177 -206 -260 -250 -288 -500 -321 -314 -40 -446 -114 -372 -208 24 -30 115 -86 142 -86 41 0 12 -19 -45 -29 -515 -93 -991 28 -1347 343 -41 36 -77 63 -80 61 -9 -10 110 -174 184 -253 374 -397 914 -493 1560 -277 61 21 114 40 118 44 4 4 -22 23 -58 41 -69 35 -115 79 -115 109 0 45 89 85 238 105 253 36 324 71 448 225 80 100 122 134 201 166 88 35 190 49 308 41 87 -6 276 -41 328 -61 30 -12 20 24 -38 142 -123 251 -338 462 -590 583 -111 53 -214 85 -400 125 -197 43 -308 81 -347 117 -28 26 -29 30 -16 51 31 48 161 86 313 90 47 1 85 5 85 9 0 14 -117 90 -195 128 -152 73 -214 85 -430 84 -183 0 -194 -1 -310 -33 -176 -49 -233 -58 -252 -39 -24 24 -8 54 68 128 38 37 69 70 69 74 0 8 -99 6 -211 -4z"/>
    </g>
</svg>
